<svg width="257" height="55" viewBox="0 0 257 55" fill="none" xmlns="http://www.w3.org/2000/svg">
<path d="M81.1289 31.9668V14.4062H87.2812V31.9668C87.2812 33.6777 86.8887 35.1602 86.1035 36.4141C85.3301 37.668 84.2754 38.6406 82.9395 39.332C81.6152 40.0117 80.127 40.3516 78.4746 40.3516C76.7637 40.3516 75.2402 40.0645 73.9043 39.4902C72.5801 38.916 71.5371 38.0312 70.7754 36.8359C70.0254 35.6406 69.6504 34.1172 69.6504 32.2656H75.8379C75.8379 33.1328 75.9375 33.8125 76.1367 34.3047C76.3359 34.7852 76.6289 35.125 77.0156 35.3242C77.4141 35.5117 77.9004 35.6055 78.4746 35.6055C79.0371 35.6055 79.5117 35.4648 79.8984 35.1836C80.2969 34.8906 80.6016 34.4746 80.8125 33.9355C81.0234 33.3848 81.1289 32.7285 81.1289 31.9668ZM90.1816 30.6836V30.3145C90.1816 28.9199 90.3809 27.6367 90.7793 26.4648C91.1777 25.2812 91.7637 24.2559 92.5371 23.3887C93.3105 22.5215 94.2656 21.8477 95.4023 21.3672C96.5391 20.875 97.8516 20.6289 99.3398 20.6289C100.84 20.6289 102.158 20.875 103.295 21.3672C104.443 21.8477 105.404 22.5215 106.178 23.3887C106.951 24.2559 107.537 25.2812 107.936 26.4648C108.334 27.6367 108.533 28.9199 108.533 30.3145V30.6836C108.533 32.0664 108.334 33.3496 107.936 34.5332C107.537 35.7051 106.951 36.7305 106.178 37.6094C105.404 38.4766 104.449 39.1504 103.312 39.6309C102.176 40.1113 100.863 40.3516 99.375 40.3516C97.8867 40.3516 96.5684 40.1113 95.4199 39.6309C94.2715 39.1504 93.3105 38.4766 92.5371 37.6094C91.7637 36.7305 91.1777 35.7051 90.7793 34.5332C90.3809 33.3496 90.1816 32.0664 90.1816 30.6836ZM96.1055 30.3145V30.6836C96.1055 31.3984 96.1582 32.0664 96.2637 32.6875C96.3691 33.3086 96.5449 33.8535 96.791 34.3223C97.0371 34.7793 97.3711 35.1367 97.793 35.3945C98.2148 35.6523 98.7422 35.7812 99.375 35.7812C99.9961 35.7812 100.512 35.6523 100.922 35.3945C101.344 35.1367 101.678 34.7793 101.924 34.3223C102.17 33.8535 102.346 33.3086 102.451 32.6875C102.557 32.0664 102.609 31.3984 102.609 30.6836V30.3145C102.609 29.623 102.557 28.9727 102.451 28.3633C102.346 27.7422 102.17 27.1973 101.924 26.7285C101.678 26.248 101.344 25.873 100.922 25.6035C100.5 25.334 99.9727 25.1992 99.3398 25.1992C98.7188 25.1992 98.1973 25.334 97.7754 25.6035C97.3652 25.873 97.0371 26.248 96.791 26.7285C96.5449 27.1973 96.3691 27.7422 96.2637 28.3633C96.1582 28.9727 96.1055 29.623 96.1055 30.3145ZM121.049 35.2188V27.3789C121.049 26.8398 120.973 26.377 120.82 25.9902C120.668 25.6035 120.428 25.3047 120.1 25.0938C119.771 24.8711 119.332 24.7598 118.781 24.7598C118.336 24.7598 117.955 24.8359 117.639 24.9883C117.322 25.1406 117.082 25.3691 116.918 25.6738C116.754 25.9785 116.672 26.3652 116.672 26.834H110.748C110.748 25.9551 110.941 25.1406 111.328 24.3906C111.727 23.6289 112.289 22.9668 113.016 22.4043C113.754 21.8418 114.633 21.4082 115.652 21.1035C116.684 20.7871 117.832 20.6289 119.098 20.6289C120.609 20.6289 121.957 20.8809 123.141 21.3848C124.336 21.8887 125.279 22.6445 125.971 23.6523C126.662 24.6484 127.008 25.9023 127.008 27.4141V35.2012C127.008 36.4434 127.078 37.3867 127.219 38.0312C127.359 38.6641 127.559 39.2207 127.816 39.7012V40H121.875C121.594 39.4141 121.383 38.6992 121.242 37.8555C121.113 37 121.049 36.1211 121.049 35.2188ZM121.77 28.3809L121.805 31.5449H119.186C118.635 31.5449 118.166 31.6211 117.779 31.7734C117.404 31.9258 117.1 32.1367 116.865 32.4062C116.643 32.6641 116.479 32.957 116.373 33.2852C116.279 33.6133 116.232 33.959 116.232 34.3223C116.232 34.6738 116.314 34.9902 116.479 35.2715C116.654 35.541 116.889 35.752 117.182 35.9043C117.475 36.0566 117.803 36.1328 118.166 36.1328C118.822 36.1328 119.379 36.0098 119.836 35.7637C120.305 35.5059 120.662 35.1953 120.908 34.832C121.154 34.4688 121.277 34.1289 121.277 33.8125L122.578 36.2383C122.344 36.707 122.074 37.1816 121.77 37.6621C121.477 38.1426 121.107 38.5879 120.662 38.998C120.229 39.3965 119.695 39.7246 119.062 39.9824C118.43 40.2285 117.662 40.3516 116.76 40.3516C115.588 40.3516 114.51 40.1113 113.525 39.6309C112.553 39.1504 111.773 38.4824 111.188 37.627C110.602 36.7598 110.309 35.7637 110.309 34.6387C110.309 33.6543 110.484 32.7754 110.836 32.002C111.199 31.2285 111.744 30.5723 112.471 30.0332C113.197 29.4941 114.123 29.084 115.248 28.8027C116.373 28.5215 117.697 28.3809 119.221 28.3809H121.77ZM122.42 12.9648L125.689 13.1582C125.689 14.0137 125.514 14.8047 125.162 15.5312C124.822 16.2578 124.348 16.8438 123.738 17.2891C123.129 17.7344 122.426 17.957 121.629 17.957C121.09 17.957 120.609 17.8867 120.188 17.7461C119.777 17.5938 119.391 17.418 119.027 17.2188C118.676 17.0195 118.312 16.8496 117.938 16.709C117.574 16.5566 117.17 16.4805 116.725 16.4805C116.361 16.4805 116.045 16.6094 115.775 16.8672C115.518 17.125 115.389 17.5234 115.389 18.0625L112.084 17.8867C112.084 17.0547 112.254 16.2754 112.594 15.5488C112.945 14.8105 113.426 14.2187 114.035 13.7734C114.645 13.3164 115.348 13.0879 116.145 13.0879C116.602 13.0879 117.035 13.1641 117.445 13.3164C117.855 13.457 118.254 13.627 118.641 13.8262C119.027 14.0137 119.414 14.1836 119.801 14.3359C120.199 14.4766 120.609 14.5469 121.031 14.5469C121.406 14.5469 121.729 14.418 121.998 14.1602C122.279 13.9023 122.42 13.5039 122.42 12.9648ZM129.557 30.6836V30.3145C129.557 28.9199 129.756 27.6367 130.154 26.4648C130.553 25.2812 131.139 24.2559 131.912 23.3887C132.686 22.5215 133.641 21.8477 134.777 21.3672C135.914 20.875 137.227 20.6289 138.715 20.6289C140.215 20.6289 141.533 20.875 142.67 21.3672C143.818 21.8477 144.779 22.5215 145.553 23.3887C146.326 24.2559 146.912 25.2812 147.311 26.4648C147.709 27.6367 147.908 28.9199 147.908 30.3145V30.6836C147.908 32.0664 147.709 33.3496 147.311 34.5332C146.912 35.7051 146.326 36.7305 145.553 37.6094C144.779 38.4766 143.824 39.1504 142.688 39.6309C141.551 40.1113 140.238 40.3516 138.75 40.3516C137.262 40.3516 135.943 40.1113 134.795 39.6309C133.646 39.1504 132.686 38.4766 131.912 37.6094C131.139 36.7305 130.553 35.7051 130.154 34.5332C129.756 33.3496 129.557 32.0664 129.557 30.6836ZM135.48 30.3145V30.6836C135.48 31.3984 135.533 32.0664 135.639 32.6875C135.744 33.3086 135.92 33.8535 136.166 34.3223C136.412 34.7793 136.746 35.1367 137.168 35.3945C137.59 35.6523 138.117 35.7812 138.75 35.7812C139.371 35.7812 139.887 35.6523 140.297 35.3945C140.719 35.1367 141.053 34.7793 141.299 34.3223C141.545 33.8535 141.721 33.3086 141.826 32.6875C141.932 32.0664 141.984 31.3984 141.984 30.6836V30.3145C141.984 29.623 141.932 28.9727 141.826 28.3633C141.721 27.7422 141.545 27.1973 141.299 26.7285C141.053 26.248 140.719 25.873 140.297 25.6035C139.875 25.334 139.348 25.1992 138.715 25.1992C138.094 25.1992 137.572 25.334 137.15 25.6035C136.74 25.873 136.412 26.248 136.166 26.7285C135.92 27.1973 135.744 27.7422 135.639 28.3633C135.533 28.9727 135.48 29.623 135.48 30.3145ZM169.477 33.9707L174.803 14.4062H181.711L173.08 40H168.615L169.477 33.9707ZM164.643 14.4062L169.969 33.9707L170.865 40H166.348L157.77 14.4062H164.643ZM189.568 20.9805V40H183.627V20.9805H189.568ZM183.275 16.0762C183.275 15.2324 183.58 14.541 184.189 14.002C184.799 13.4629 185.59 13.1934 186.562 13.1934C187.535 13.1934 188.326 13.4629 188.936 14.002C189.545 14.541 189.85 15.2324 189.85 16.0762C189.85 16.9199 189.545 17.6113 188.936 18.1504C188.326 18.6895 187.535 18.959 186.562 18.959C185.59 18.959 184.799 18.6895 184.189 18.1504C183.58 17.6113 183.275 16.9199 183.275 16.0762ZM201.258 35.7812C201.809 35.7812 202.277 35.6816 202.664 35.4824C203.062 35.2715 203.361 34.9785 203.561 34.6035C203.771 34.2168 203.871 33.7539 203.859 33.2148H209.432C209.443 34.6445 209.092 35.8984 208.377 36.9766C207.674 38.043 206.713 38.875 205.494 39.4727C204.287 40.0586 202.922 40.3516 201.398 40.3516C199.91 40.3516 198.609 40.1113 197.496 39.6309C196.383 39.1387 195.451 38.459 194.701 37.5918C193.963 36.7129 193.406 35.6875 193.031 34.5156C192.668 33.3438 192.486 32.0723 192.486 30.7012V30.2969C192.486 28.9258 192.668 27.6543 193.031 26.4824C193.406 25.2988 193.963 24.2734 194.701 23.4062C195.451 22.5273 196.377 21.8477 197.479 21.3672C198.592 20.875 199.887 20.6289 201.363 20.6289C202.945 20.6289 204.34 20.9277 205.547 21.5254C206.766 22.123 207.721 22.9902 208.412 24.127C209.104 25.2637 209.443 26.6406 209.432 28.2578H203.859C203.871 27.6836 203.783 27.168 203.596 26.7109C203.408 26.2539 203.115 25.8906 202.717 25.6211C202.33 25.3398 201.832 25.1992 201.223 25.1992C200.613 25.1992 200.121 25.334 199.746 25.6035C199.371 25.873 199.084 26.248 198.885 26.7285C198.697 27.1973 198.568 27.7363 198.498 28.3457C198.439 28.9551 198.41 29.6055 198.41 30.2969V30.7012C198.41 31.4043 198.439 32.0664 198.498 32.6875C198.568 33.2969 198.703 33.8359 198.902 34.3047C199.102 34.7617 199.389 35.125 199.764 35.3945C200.139 35.6523 200.637 35.7812 201.258 35.7812ZM221.982 20.9805V25.0938H210.521V20.9805H221.982ZM212.93 16.252H218.854V33.7949C218.854 34.2988 218.912 34.6914 219.029 34.9727C219.146 35.2422 219.346 35.4355 219.627 35.5527C219.92 35.6582 220.307 35.7109 220.787 35.7109C221.127 35.7109 221.408 35.7051 221.631 35.6934C221.854 35.6699 222.064 35.6406 222.264 35.6055V39.8418C221.76 40.0059 221.232 40.1289 220.682 40.2109C220.131 40.3047 219.545 40.3516 218.924 40.3516C217.658 40.3516 216.574 40.1523 215.672 39.7539C214.781 39.3555 214.102 38.7285 213.633 37.873C213.164 37.0176 212.93 35.9043 212.93 34.5332V16.252ZM223.072 30.6836V30.3145C223.072 28.9199 223.271 27.6367 223.67 26.4648C224.068 25.2812 224.654 24.2559 225.428 23.3887C226.201 22.5215 227.156 21.8477 228.293 21.3672C229.43 20.875 230.742 20.6289 232.23 20.6289C233.73 20.6289 235.049 20.875 236.186 21.3672C237.334 21.8477 238.295 22.5215 239.068 23.3887C239.842 24.2559 240.428 25.2812 240.826 26.4648C241.225 27.6367 241.424 28.9199 241.424 30.3145V30.6836C241.424 32.0664 241.225 33.3496 240.826 34.5332C240.428 35.7051 239.842 36.7305 239.068 37.6094C238.295 38.4766 237.34 39.1504 236.203 39.6309C235.066 40.1113 233.754 40.3516 232.266 40.3516C230.777 40.3516 229.459 40.1113 228.311 39.6309C227.162 39.1504 226.201 38.4766 225.428 37.6094C224.654 36.7305 224.068 35.7051 223.67 34.5332C223.271 33.3496 223.072 32.0664 223.072 30.6836ZM228.996 30.3145V30.6836C228.996 31.3984 229.049 32.0664 229.154 32.6875C229.26 33.3086 229.436 33.8535 229.682 34.3223C229.928 34.7793 230.262 35.1367 230.684 35.3945C231.105 35.6523 231.633 35.7812 232.266 35.7812C232.887 35.7812 233.402 35.6523 233.812 35.3945C234.234 35.1367 234.568 34.7793 234.814 34.3223C235.061 33.8535 235.236 33.3086 235.342 32.6875C235.447 32.0664 235.5 31.3984 235.5 30.6836V30.3145C235.5 29.623 235.447 28.9727 235.342 28.3633C235.236 27.7422 235.061 27.1973 234.814 26.7285C234.568 26.248 234.234 25.873 233.812 25.6035C233.391 25.334 232.863 25.1992 232.23 25.1992C231.609 25.1992 231.088 25.334 230.666 25.6035C230.256 25.873 229.928 26.248 229.682 26.7285C229.436 27.1973 229.26 27.7422 229.154 28.3633C229.049 28.9727 228.996 29.623 228.996 30.3145ZM250.037 25.6914V40H244.113V20.9805H249.65L250.037 25.6914ZM255.662 20.8398L255.557 26.3418C255.322 26.3184 255.006 26.2891 254.607 26.2539C254.209 26.2188 253.875 26.2012 253.605 26.2012C252.914 26.2012 252.316 26.2832 251.812 26.4473C251.32 26.5996 250.91 26.834 250.582 27.1504C250.266 27.4551 250.031 27.8418 249.879 28.3105C249.738 28.7793 249.674 29.3242 249.686 29.9453L248.613 29.2422C248.613 27.9648 248.736 26.8047 248.982 25.7617C249.24 24.707 249.604 23.7988 250.072 23.0371C250.541 22.2637 251.109 21.6719 251.777 21.2617C252.445 20.8398 253.195 20.6289 254.027 20.6289C254.32 20.6289 254.607 20.6465 254.889 20.6816C255.182 20.7168 255.439 20.7695 255.662 20.8398Z" fill="#445964"/>
<path d="M45.6238 10.5052L29.4558 1.1809C26.7256 -0.393688 23.3331 -0.39358 20.6028 1.1809L4.43491 10.5052C1.69931 12.0827 0 15.0247 0 18.1829V36.817C0 39.9752 1.69931 42.9172 4.4348 44.4947L20.6028 53.819C23.3335 55.3939 26.7259 55.3934 29.4558 53.819L45.6237 44.4947C48.3593 42.9172 50.0586 39.9752 50.0586 36.817V18.1829C50.0586 15.0248 48.3593 12.0828 45.6238 10.5052ZM45.7617 36.817C45.7617 38.4438 44.8864 39.9592 43.4773 40.7718L27.3093 50.0961C25.9029 50.9073 24.1556 50.9073 22.7492 50.0961L6.5812 40.7718C5.17215 39.9591 4.29688 38.4438 4.29688 36.817V18.1829C4.29688 16.5562 5.17215 15.0408 6.58131 14.2283L22.7492 4.90393C24.1557 4.09268 25.9035 4.093 27.3094 4.90393L43.4774 14.2281C44.8864 15.0408 45.7617 16.5561 45.7617 18.1829V36.817Z" fill="#445964"/>
<path d="M22.9876 25.8596L15.0082 19.1067C14.1026 18.3401 12.7468 18.453 11.9803 19.359C11.2139 20.265 11.3269 21.6208 12.2327 22.3874L18.2739 27.5L12.2327 32.6125C11.3269 33.3791 11.214 34.7349 11.9803 35.6409C12.7486 36.5488 14.1047 36.6578 15.0082 35.8931L22.9876 29.1402C24.0028 28.2812 23.9999 26.7163 22.9876 25.8596Z" fill="#445964"/>
<path d="M36.4382 32.104H26.7707C25.5841 32.104 24.6223 33.066 24.6223 34.2528C24.6223 35.4396 25.5841 36.4015 26.7707 36.4015H36.4382C37.6246 36.4015 38.5866 35.4396 38.5866 34.2528C38.5866 33.066 37.6247 32.104 36.4382 32.104Z" fill="#445964"/>
</svg>
